<svg id="Cat" xmlns="http://www.w3.org/2000/svg" width="300" height="300" viewBox="0 0 400 400">
  <defs>
    <style>
      .cls-1 {
        fill: #005890;
      }

      .cls-1, .cls-2, .cls-3, .cls-4 {
        fill-rule: evenodd;
      }

      .cls-2, .cls-3, .cls-4 {
        fill: #f3fbff;
      }

      .cls-2 {
        stroke: #fff;
      }

      .cls-2, .cls-4 {
        stroke-width: 5px;
      }

      .cls-4 {
        stroke: #f3fbff;
      }

/* Copy this @keyframes block to your CSS*/
@keyframes yourAnimation {
    0.0%{
        opacity: 0;
    }
    100%{
        opacity: 1;
    }
    10%{
        opacity: 0;
    }
    60%{
        opacity: 1;
    }
}

/* Add the animation: property to whichever element you want to animate */
#Bone{
    animation: yourAnimation 5s ease 0s infinite normal none;
}

    </style>
  </defs>
  <g id="Mainbody">
    <path id="tail" class="cls-1" d="M112.109,345.822s-5.8,8.274-15.136,8.829c-5.371.32-18.429-2.308-21.443-7.568-8.251-14.4-3.942-49.508-1.261-60.545s-1.84-35.633-10.091-40.363-18.657-6.2-23.966-1.262,11.615,11.037,12.614,22.7-1.9,23.658-2.523,32.8c-0.683,9.986-2.26,32.9,0,40.363s6.149,21.548,16.4,26.489,24.643,8.545,37.84,7.568c12.772-.946,21.706-1.577,26.489-5.046S112.109,345.822,112.109,345.822Z"/>
    <path id="body" class="cls-1" d="M271.04,38.052s0.683,1.787-3.784-7.568C262.248,20,267.1,18.816,260.949,19.131c-6.011.308-6.885,3.469-7.568,5.045s-11.352-11.352-11.352-11.352-2.816-1.123-5.046,2.523c-4.237,6.93-11.089,11.878-11.352,25.227s-3.521,13.98-5.045,17.659-15.715,21.548-16.4,31.534,2.365,45.093,10.091,54.238S158.2,166.394,131.03,203.289s-53.135,82.934-22.7,145.055c9.213,18.808,28.357,31.644,49.193,36.58,17.638,4.178,36.166,1.871,54.238,1.261a576.6,576.6,0,0,0,58.023-5.045s1.1-8.3,6.306-10.091,23.808,5.15,30.273-1.262,2.785-13.769-7.568-20.181-15.715-41.94,0-73.159,26.751-58.758,23.965-78.2-1.839-25.542,0-32.795,22.547-17.554,27.75-26.488,10.354-26.384,8.83-46.67S349.927,81.043,344.2,78.415,338.155,56.656,318.971,43.1,271.04,38.052,271.04,38.052Z"/>
  </g>
  <g id="Bone">
    <path id="bone_1" data-name="bone 1" class="cls-2" d="M308.881,51.926S262.053,33.111,235.722,65.8s-6.044,83.355,36.579,78.2S317.71,130.13,317.71,130.13s17.081-1.576,21.443-1.261c3.254,0.235,6.57-9.986,6.307-12.614s2.365-23.019-3.784-25.227S329.745,83.986,327.8,80.938,320.653,57.392,308.881,51.926Z"/>
    <path id="bone_2" data-name="bone 2" class="cls-3" d="M315.187,138.96s6.528,6.706,8.83,5.045,6.78-2.88,7.568-6.307-4.825-5.907-6.307-3.784-5.834.652-7.568,1.262S313.926,138.2,315.187,138.96Z"/>
    <path id="bone_3" data-name="bone 3" class="cls-3" d="M260.949,150.312a3.613,3.613,0,0,1-1.381,1.027c-1.2.536-3.228,0.757-6.187-1.027-5.266-3.174-9.366-6.16-12.614-2.523s-2.3,6.454,2.523,7.568,7.284,0.9,8.83,2.523,7.536,0.4,8.829-1.261,5.046-4.97,3.784-6.307"/>
    <path id="bone_4" data-name="bone 4" class="cls-4" d="M296.267,207.073s-7.095-40.973-60.545-45.409-95.894,62.71-83.249,74.42,57.234,25.122,61.806,27.75,6.78,1.156,3.784-2.523-26.772-18.016-31.534-20.182-7.852-9.439-3.784-11.352,14.1-.357,17.659,2.523,33.521,21.086,37.841,21.443,6.78,0.652,5.045-6.307-43.674-27.855-44.147-29.011-4.068-11.457,10.091-7.568,51.431,32.438,52.977,34.056,10.563,0.9,2.522-10.09-45.945-30.63-46.67-32.8-2.05-12.97,13.875-6.306,44.873,33.7,46.67,35.318,13.843,5.7,6.307-11.353-43.17-32.143-45.409-34.056-12.645-19.026,12.614-7.568S292.2,208.986,293.744,209.6,297.024,210.1,296.267,207.073Z"/>
    <path id="bone_5" data-name="bone 5" class="cls-3" d="M144.905,238.607c1.8,1.366,10.563,11.5,13.874,11.352s-7.095,17.049-11.352,16.4-11.383-10.952-11.352-13.874,4.762-4.142,5.046-6.307S143.107,237.24,144.905,238.607Z"/>
    <path id="bone_6" data-name="bone 6" class="cls-3" d="M129.768,267.618a83.267,83.267,0,0,0,7.568,3.784c3.312,1.366,1.735,2.417,3.785,2.523s-2.555,4.435-3.785,7.568-0.788,6.454-2.522,6.306-11.132-5.4-11.352-8.829S129.768,267.618,129.768,267.618Z"/>
    <path id="bone_7" data-name="bone 7" class="cls-3" d="M118.416,292.845s12.834,1.913,13.875,5.045,0.221,8.472-1.261,11.353-5.834,4.183-7.568,2.522-5.834-7.925-5.046-8.829S118.416,292.845,118.416,292.845Z"/>
    <path id="bone_8" data-name="bone 8" class="cls-3" d="M117.155,321.856s18.636-3.132,20.181,1.261,6.528,3.932,8.83,3.784a21.819,21.819,0,0,1,10.091,2.523c3.563,1.871-5.582,8.724-6.307,12.614s1.734,11.751,3.784,13.875,4,5.949,2.523,7.568-12.645.9-16.4-2.523-10.627-7.421-15.136-16.4S117.155,321.856,117.155,321.856Z"/>
    <path id="bone_9" data-name="bone 9" class="cls-3" d="M160.041,353.39s-5.077-5.4,11.352-26.489,46.134-59.893,64.329-61.806,15.357,4.436,15.136,6.307S230.9,290.217,224.37,296.629s-35.6,34.2-39.1,39.1-18.447,20.581-21.443,20.182A4.513,4.513,0,0,1,160.041,353.39Z"/>
    <path id="bone_10" data-name="bone 10" class="cls-3" d="M252.12,287.8s-18.195.148-32.8,37.841-11.383,39-8.829,40.363c0.578,0.309,4.176-.185,6.307-2.522,2.648-2.906,4.126-8.266,7.568-13.875,6.035-9.834,11.888-22.723,15.136-29.011,6.591-12.761,14.6-19.278,16.4-23.966S257.67,289.061,252.12,287.8Z"/>
    <path id="bone_11" data-name="bone 11" class="cls-3" d="M271.04,302.936s-1.8-4.394,1.261-25.227,6.023-34.919,11.353-36.58,11.825-.862,10.09,8.83-5.329,14.022-6.306,18.92-7.1,18.059-7.569,22.7-4.32,13.769-5.045,13.874S271.04,302.936,271.04,302.936Z"/>
    <path id="bone_12" data-name="bone 12" class="cls-3" d="M269.779,319.333s-1.041,15.284,1.261,18.921,2.239,18.815,7.568,16.4,6.78-7.421,3.784-13.875-4.572-13.98-6.307-17.659S275.329,317.063,269.779,319.333Z"/>
    <path id="bone_13" data-name="bone 13" class="cls-3" d="M221.847,374.833a19.107,19.107,0,0,1,10.091-6.307c6.338-1.408,8.041-1.114,11.352-2.523s15.1-1.871,17.659-1.261,2.491,7.211,2.523,8.829-11.636,3.427-15.136,3.785-15.673.9-17.659,0S225.631,379.626,221.847,374.833Z"/>
    <path id="bone_14" data-name="bone 14" class="cls-3" d="M286.176,362.219s-1.8-5.15,3.784-5.045,10.06,2.67,8.83,5.045-1.041,4.941-5.046,3.784S286.176,363.228,286.176,362.219Z"/>
    <path id="bone_15" data-name="bone 15" class="cls-3" d="M96.973,360.958s11.195,0.1,13.875-2.523,4.467,1.367,5.045,3.784-8.566,5.992-12.613,5.046S94.451,363.481,96.973,360.958Z"/>
    <path id="bone_16" data-name="bone 16" class="cls-3" d="M89.405,362.219s-11.09-1.156-12.614-3.784-6.044.526-5.045,2.523,2.365,6.832,7.568,6.307,8.252,2.207,10.091,0S89.405,362.219,89.405,362.219Z"/>
    <path id="bone_17" data-name="bone 17" class="cls-3" d="M69.223,352.129s-5.623-7.043-5.045-10.091-4.783-7.463-5.045-3.784-1.419,6.832,1.261,10.09S64.6,357.174,69.223,352.129Z"/>
    <path id="bone_18" data-name="bone 18" class="cls-3" d="M57.871,325.64s-0.158-5.361,1.261-8.829,4.467-.316,5.045,3.784,0.263,9.355-1.261,8.829S57.871,329,57.871,325.64Z"/>
    <path id="bone_19" data-name="bone 19" class="cls-3" d="M61.655,305.458s-2.585-4.524-2.523-7.568c0.068-3.335,4.5-11.1,3.784-7.568-0.373,1.829,2.786,3.469,2.523,7.568S62.917,307.981,61.655,305.458Z"/>
    <path id="bone_20" data-name="bone 20" class="cls-3" d="M62.917,281.493s-2.681-6.2,0-8.83,4.888-1.576,5.045,1.262,0.263,6.832-1.261,7.568S62.917,285.277,62.917,281.493Z"/>
    <path id="bone_21" data-name="bone 21" class="cls-3" d="M64.178,262.572s-3.942-14.19-7.568-13.875-4.362,5.571-1.261,7.569,0.263,6.412,2.523,7.568S64.178,264.675,64.178,262.572Z"/>
  </g>
  <path id="eye" class="cls-1" d="M306.358,62.017c-0.6-1.109-6.95.587-10.091,5.045-3.037,4.311-2.95,12.543,1.261,17.659,8.567,10.406,19.922,9.148,25.227,5.045,3.942-3.048-6.464-9.145-8.829-12.614S309.3,67.483,306.358,62.017Z"/>
</svg>
