<svg id="Quantum" xmlns="http://www.w3.org/2000/svg" xmlns:xlink="http://www.w3.org/1999/xlink" width="800" height="800" viewBox="0 0 800 800">
  <defs>
    <style>
      .cls-1, .cls-2, .cls-3, .cls-4 {
        fill: none;
      }

      .cls-1, .cls-2, .cls-3 {
        stroke-width: 15.93px;
      }

      .cls-1, .cls-2, .cls-3, .cls-4, .cls-5 {
        fill-rule: evenodd;
      }

      .cls-1 {
        stroke: url(#linear-gradient);
      }

      .cls-2 {
        stroke: url(#linear-gradient-2);
      }

      .cls-3 {
        stroke: url(#linear-gradient-3);
      }

      .cls-4, .cls-5 {
        stroke: #82e7fe;
      }

      .cls-4 {
        stroke-width: 7px;
        opacity: 0.85;
      }

      .cls-5, .cls-6 {
        stroke-width: 5px;
      }

      .cls-5 {
        fill: url(#linear-gradient-5);
      }

      .cls-6 {
        fill: #fff;
        stroke: #f0f8ff;
      }

/* Copy this @keyframes block to your CSS*/
@keyframes decoAnimation {
    0.0%{
      transform: rotate(0deg);
      transform-origin: center;
    }
    75%{
      transform: rotate(180deg);
      transform-origin: center;
    }
    100%{
      transform: rotate(180deg);
      transform-origin: center;
    }
}

/* Add the animation: property to whichever element you want to animate */
#quantum2, #dot1{
    animation: decoAnimation 10s ease 0s infinite alternate none;
}

/* Copy this @keyframes block to your CSS*/
@keyframes decoAnimation2 {
    0.0%{
      transform: rotate(0deg);
      transform-origin: center;
    }
    75%{
      transform: rotate(-180deg);
      transform-origin: center;
    }
    100%{
      transform: rotate(-180deg);
      transform-origin: center;
    }
}

/* Add the animation: property to whichever element you want to animate */
#quantum4, #dot2{
    animation: decoAnimation2 10s ease 0s infinite alternate none;
}

/* Copy this @keyframes block to your CSS*/
@keyframes decoAnimation3 {
    0.0%{
      transform: rotate(0deg);
      transform-origin: center;
    }
    75%{
      transform: rotate(-180deg);
      transform-origin: center;
    }
    100%{
      transform: rotate(-180deg);
      transform-origin: center;
    }
}

/* Add the animation: property to whichever element you want to animate */
#quantum1, #dot3{
    animation: decoAnimation3 10s ease 0s infinite alternate none;
}

/* Copy this @keyframes block to your CSS*/
@keyframes decoAnimation4 {
    0.0%{
      transform: rotate(0deg);
      transform-origin: center;
    }
    75%{
      transform: rotate(180deg);
      transform-origin: center;
    }
    100%{
      transform: rotate(180deg);
      transform-origin: center;
    }
}

/* Add the animation: property to whichever element you want to animate */
#quantum3{
    animation: decoAnimation4 10s ease 0s infinite alternate none;
}v

    </style>
    <filter id="filter" x="-20%" y="-20%" width="140%" height="140%" filterUnits="objectBoundingBox" primitiveUnits="userSpaceOnUse" color-interpolation-filters="linearRGB">
       <feGaussianBlur stdDeviation="4 10" x="0%" y="0%" width="100%" height="100%" in="SourceGraphic" edgeMode="none" result="blur2"/>
    </filter>
    <linearGradient id="linear-gradient" x1="398.75" y1="497.906" x2="398.75" y2="307.094" gradientUnits="userSpaceOnUse">
      <stop offset="0" stop-color="#73c6fe"/>
      <stop offset="0.497" stop-color="#82e7fe"/>
      <stop offset="1" stop-color="#73c6fe"/>
    </linearGradient>
    <linearGradient id="linear-gradient-2" y1="655.906" y2="149.094" xlink:href="#linear-gradient"/>
    <linearGradient id="linear-gradient-3" y1="747.875" y2="57.125" xlink:href="#linear-gradient"/>
    <linearGradient id="linear-gradient-5" x1="398.922" y1="431.656" x2="398.922" y2="371.844" gradientUnits="userSpaceOnUse">
      <stop offset="0" stop-color="#7fe4fe"/>
      <stop offset="1" stop-color="#4ab7f8"/>
    </linearGradient>
  </defs>
  <path id="quantum1" class="cls-1" d="M398.75,307.094c190.743,0,345.37,42.715,345.37,95.406s-154.627,95.406-345.37,95.406S53.38,455.191,53.38,402.5,208.007,307.094,398.75,307.094Z"/>
  <path id="quantum2" class="cls-2" d="M466.212,335.038c134.876,134.875,214.01,274.417,176.751,311.675s-176.8-41.875-311.675-176.751S117.278,195.545,154.537,158.287,331.337,200.162,466.212,335.038Z"/>
  <path id="quantum3" class="cls-3" d="M303.344,402.5c0-190.742,42.715-345.37,95.406-345.37s95.406,154.628,95.406,345.37S451.441,747.87,398.75,747.87,303.344,593.243,303.344,402.5Z"/>
  <path id="quantum4" class="cls-2" d="M466.212,469.962C331.337,604.838,191.8,683.972,154.537,646.713s41.875-176.8,176.751-311.675,274.417-214.01,311.675-176.751S601.088,335.087,466.212,469.962Z"/>
  <path class="cls-4" d="M324.3,403.532s26.783-39.412,74.9-39.194,74.034,39.194,74.034,39.194-28.525,37.235-74.034,37.452S324.3,403.532,324.3,403.532Z"/>
  <path class="cls-5" d="M398.917,371.833A29.917,29.917,0,1,1,369,401.75,29.916,29.916,0,0,1,398.917,371.833Z"/>
  <circle id="dot3" filter="url(#filter)" class="cls-6" cx="704" cy="433" r="42"/>
  <circle id="dot2" filter="url(#filter)" class="cls-6" cx="244" cy="626" r="42"/>
  <circle id="dot1" filter="url(#filter)" class="cls-6" cx="160" cy="157" r="42"/>
</svg>
